STARTFONT 2.1
FONT spc08x16v7
SIZE 11 75 75
FONTBOUNDINGBOX 8 16 0 0

STARTPROPERTIES 9
POINT_SIZE 110
WEIGHT 10
RESOLUTION_X 75
RESOLUTION_Y 75
X_HEIGHT 0
QUAD_WIDTH 8
DEFAULT_CHAR 0
FONT_DESCENT 0
FONT_ASCENT 16
ENDPROPERTIES

CHARS 256

STARTCHAR C000
ENCODING 0
SWIDTH 1 0
DWIDTH 8 0
BBX 8 16 0 0
BITMAP
00
00
00
00
00
00
00
00
00
00
00
00
00
00
00
00
ENDCHAR

STARTCHAR C001
ENCODING 1
SWIDTH 1 0
DWIDTH 8 0
BBX 8 16 0 0
BITMAP
7E
7E
81
81
A5
A5
81
81
BD
BD
99
99
81
81
7E
7E
ENDCHAR

STARTCHAR C002
ENCODING 2
SWIDTH 1 0
DWIDTH 8 0
BBX 8 16 0 0
BITMAP
7E
7E
FF
FF
DB
DB
FF
FF
C3
C3
E7
E7
FF
FF
7E
7E
ENDCHAR

STARTCHAR C003
ENCODING 3
SWIDTH 1 0
DWIDTH 8 0
BBX 8 16 0 0
BITMAP
6C
6C
FE
FE
FE
FE
FE
FE
7C
7C
38
38
10
10
00
00
ENDCHAR

STARTCHAR C004
ENCODING 4
SWIDTH 1 0
DWIDTH 8 0
BBX 8 16 0 0
BITMAP
10
10
38
38
7C
7C
FE
FE
7C
7C
38
38
10
10
00
00
ENDCHAR

STARTCHAR C005
ENCODING 5
SWIDTH 1 0
DWIDTH 8 0
BBX 8 16 0 0
BITMAP
38
38
7C
7C
38
38
FE
FE
FE
FE
7C
7C
38
38
7C
7C
ENDCHAR

STARTCHAR C006
ENCODING 6
SWIDTH 1 0
DWIDTH 8 0
BBX 8 16 0 0
BITMAP
10
10
10
10
38
38
7C
7C
FE
FE
7C
7C
38
38
7C
7C
ENDCHAR

STARTCHAR C007
ENCODING 7
SWIDTH 1 0
DWIDTH 8 0
BBX 8 16 0 0
BITMAP
00
00
00
00
18
18
3C
3C
3C
3C
18
18
00
00
00
00
ENDCHAR

STARTCHAR C010
ENCODING 8
SWIDTH 1 0
DWIDTH 8 0
BBX 8 16 0 0
BITMAP
FF
FF
FF
FF
E7
E7
C3
C3
C3
C3
E7
E7
FF
FF
FF
FF
ENDCHAR

STARTCHAR C011
ENCODING 9
SWIDTH 1 0
DWIDTH 8 0
BBX 8 16 0 0
BITMAP
00
00
3C
3C
66
66
42
42
42
42
66
66
3C
3C
00
00
ENDCHAR

STARTCHAR C012
ENCODING 10
SWIDTH 1 0
DWIDTH 8 0
BBX 8 16 0 0
BITMAP
FF
FF
C3
C3
99
99
BD
BD
BD
BD
99
99
C3
C3
FF
FF
ENDCHAR

STARTCHAR C013
ENCODING 11
SWIDTH 1 0
DWIDTH 8 0
BBX 8 16 0 0
BITMAP
0F
0F
07
07
0F
0F
7D
7D
CC
CC
CC
CC
CC
CC
78
78
ENDCHAR

STARTCHAR C014
ENCODING 12
SWIDTH 1 0
DWIDTH 8 0
BBX 8 16 0 0
BITMAP
3C
3C
66
66
66
66
66
66
3C
3C
18
18
7E
7E
18
18
ENDCHAR

STARTCHAR C015
ENCODING 13
SWIDTH 1 0
DWIDTH 8 0
BBX 8 16 0 0
BITMAP
3F
3F
33
33
3F
3F
30
30
30
30
70
70
F0
F0
E0
E0
ENDCHAR

STARTCHAR C016
ENCODING 14
SWIDTH 1 0
DWIDTH 8 0
BBX 8 16 0 0
BITMAP
7F
7F
63
63
7F
7F
63
63
63
63
67
67
E6
E6
C0
C0
ENDCHAR

STARTCHAR C017
ENCODING 15
SWIDTH 1 0
DWIDTH 8 0
BBX 8 16 0 0
BITMAP
99
99
5A
5A
3C
3C
E7
E7
E7
E7
3C
3C
5A
5A
99
99
ENDCHAR

STARTCHAR C020
ENCODING 16
SWIDTH 1 0
DWIDTH 8 0
BBX 8 16 0 0
BITMAP
80
80
E0
E0
F8
F8
FE
FE
F8
F8
E0
E0
80
80
00
00
ENDCHAR

STARTCHAR C021
ENCODING 17
SWIDTH 1 0
DWIDTH 8 0
BBX 8 16 0 0
BITMAP
02
02
0E
0E
3E
3E
FE
FE
3E
3E
0E
0E
02
02
00
00
ENDCHAR

STARTCHAR C022
ENCODING 18
SWIDTH 1 0
DWIDTH 8 0
BBX 8 16 0 0
BITMAP
18
18
3C
3C
7E
7E
18
18
18
18
7E
7E
3C
3C
18
18
ENDCHAR

STARTCHAR C023
ENCODING 19
SWIDTH 1 0
DWIDTH 8 0
BBX 8 16 0 0
BITMAP
66
66
66
66
66
66
66
66
66
66
00
00
66
66
00
00
ENDCHAR

STARTCHAR C024
ENCODING 20
SWIDTH 1 0
DWIDTH 8 0
BBX 8 16 0 0
BITMAP
7F
7F
DB
DB
DB
DB
7B
7B
1B
1B
1B
1B
1B
1B
00
00
ENDCHAR

STARTCHAR C025
ENCODING 21
SWIDTH 1 0
DWIDTH 8 0
BBX 8 16 0 0
BITMAP
3E
3E
63
63
38
38
6C
6C
6C
6C
38
38
CC
CC
78
78
ENDCHAR

STARTCHAR C026
ENCODING 22
SWIDTH 1 0
DWIDTH 8 0
BBX 8 16 0 0
BITMAP
00
00
00
00
00
00
00
00
7E
7E
7E
7E
7E
7E
00
00
ENDCHAR

STARTCHAR C027
ENCODING 23
SWIDTH 1 0
DWIDTH 8 0
BBX 8 16 0 0
BITMAP
18
18
3C
3C
7E
7E
18
18
7E
7E
3C
3C
18
18
FF
FF
ENDCHAR

STARTCHAR C030
ENCODING 24
SWIDTH 1 0
DWIDTH 8 0
BBX 8 16 0 0
BITMAP
18
18
3C
3C
7E
7E
18
18
18
18
18
18
18
18
00
00
ENDCHAR

STARTCHAR C031
ENCODING 25
SWIDTH 1 0
DWIDTH 8 0
BBX 8 16 0 0
BITMAP
18
18
18
18
18
18
18
18
7E
7E
3C
3C
18
18
00
00
ENDCHAR

STARTCHAR C032
ENCODING 26
SWIDTH 1 0
DWIDTH 8 0
BBX 8 16 0 0
BITMAP
00
00
18
18
0C
0C
FE
FE
0C
0C
18
18
00
00
00
00
ENDCHAR

STARTCHAR C033
ENCODING 27
SWIDTH 1 0
DWIDTH 8 0
BBX 8 16 0 0
BITMAP
00
00
30
30
60
60
FE
FE
60
60
30
30
00
00
00
00
ENDCHAR

STARTCHAR C034
ENCODING 28
SWIDTH 1 0
DWIDTH 8 0
BBX 8 16 0 0
BITMAP
00
00
00
00
C0
C0
C0
C0
C0
C0
FE
FE
00
00
00
00
ENDCHAR

STARTCHAR C035
ENCODING 29
SWIDTH 1 0
DWIDTH 8 0
BBX 8 16 0 0
BITMAP
00
00
24
24
66
66
FF
FF
66
66
24
24
00
00
00
00
ENDCHAR

STARTCHAR C036
ENCODING 30
SWIDTH 1 0
DWIDTH 8 0
BBX 8 16 0 0
BITMAP
00
00
18
18
3C
3C
7E
7E
FF
FF
FF
FF
00
00
00
00
ENDCHAR

STARTCHAR C037
ENCODING 31
SWIDTH 1 0
DWIDTH 8 0
BBX 8 16 0 0
BITMAP
00
00
FF
FF
FF
FF
7E
7E
3C
3C
18
18
00
00
00
00
ENDCHAR

STARTCHAR C040
ENCODING 32
SWIDTH 1 0
DWIDTH 8 0
BBX 8 16 0 0
BITMAP
00
00
00
00
00
00
00
00
00
00
00
00
00
00
00
00
ENDCHAR

STARTCHAR C041
ENCODING 33
SWIDTH 1 0
DWIDTH 8 0
BBX 8 16 0 0
BITMAP
30
30
78
78
78
78
30
30
30
30
00
00
30
30
00
00
ENDCHAR

STARTCHAR C042
ENCODING 34
SWIDTH 1 0
DWIDTH 8 0
BBX 8 16 0 0
BITMAP
6C
6C
6C
6C
6C
6C
00
00
00
00
00
00
00
00
00
00
ENDCHAR

STARTCHAR C043
ENCODING 35
SWIDTH 1 0
DWIDTH 8 0
BBX 8 16 0 0
BITMAP
6C
6C
6C
6C
FE
FE
6C
6C
FE
FE
6C
6C
6C
6C
00
00
ENDCHAR

STARTCHAR C044
ENCODING 36
SWIDTH 1 0
DWIDTH 8 0
BBX 8 16 0 0
BITMAP
30
30
7C
7C
C0
C0
78
78
0C
0C
F8
F8
30
30
00
00
ENDCHAR

STARTCHAR C045
ENCODING 37
SWIDTH 1 0
DWIDTH 8 0
BBX 8 16 0 0
BITMAP
00
00
C6
C6
CC
CC
18
18
30
30
66
66
C6
C6
00
00
ENDCHAR

STARTCHAR C046
ENCODING 38
SWIDTH 1 0
DWIDTH 8 0
BBX 8 16 0 0
BITMAP
38
38
6C
6C
38
38
76
76
DC
DC
CC
CC
76
76
00
00
ENDCHAR

STARTCHAR C047
ENCODING 39
SWIDTH 1 0
DWIDTH 8 0
BBX 8 16 0 0
BITMAP
60
60
60
60
C0
C0
00
00
00
00
00
00
00
00
00
00
ENDCHAR

STARTCHAR C050
ENCODING 40
SWIDTH 1 0
DWIDTH 8 0
BBX 8 16 0 0
BITMAP
18
18
30
30
60
60
60
60
60
60
30
30
18
18
00
00
ENDCHAR

STARTCHAR C051
ENCODING 41
SWIDTH 1 0
DWIDTH 8 0
BBX 8 16 0 0
BITMAP
60
60
30
30
18
18
18
18
18
18
30
30
60
60
00
00
ENDCHAR

STARTCHAR C052
ENCODING 42
SWIDTH 1 0
DWIDTH 8 0
BBX 8 16 0 0
BITMAP
00
00
66
66
3C
3C
FF
FF
3C
3C
66
66
00
00
00
00
ENDCHAR

STARTCHAR C053
ENCODING 43
SWIDTH 1 0
DWIDTH 8 0
BBX 8 16 0 0
BITMAP
00
00
30
30
30
30
FC
FC
30
30
30
30
00
00
00
00
ENDCHAR

STARTCHAR C054
ENCODING 44
SWIDTH 1 0
DWIDTH 8 0
BBX 8 16 0 0
BITMAP
00
00
00
00
00
00
00
00
00
00
30
30
30
30
60
60
ENDCHAR

STARTCHAR C055
ENCODING 45
SWIDTH 1 0
DWIDTH 8 0
BBX 8 16 0 0
BITMAP
00
00
00
00
00
00
FC
FC
00
00
00
00
00
00
00
00
ENDCHAR

STARTCHAR C056
ENCODING 46
SWIDTH 1 0
DWIDTH 8 0
BBX 8 16 0 0
BITMAP
00
00
00
00
00
00
00
00
00
00
30
30
30
30
00
00
ENDCHAR

STARTCHAR C057
ENCODING 47
SWIDTH 1 0
DWIDTH 8 0
BBX 8 16 0 0
BITMAP
06
06
0C
0C
18
18
30
30
60
60
C0
C0
80
80
00
00
ENDCHAR

STARTCHAR C060
ENCODING 48
SWIDTH 1 0
DWIDTH 8 0
BBX 8 16 0 0
BITMAP
7C
7C
C6
C6
CE
CE
DE
DE
F6
F6
E6
E6
7C
7C
00
00
ENDCHAR

STARTCHAR C061
ENCODING 49
SWIDTH 1 0
DWIDTH 8 0
BBX 8 16 0 0
BITMAP
30
30
70
70
30
30
30
30
30
30
30
30
FC
FC
00
00
ENDCHAR

STARTCHAR C062
ENCODING 50
SWIDTH 1 0
DWIDTH 8 0
BBX 8 16 0 0
BITMAP
78
78
CC
CC
0C
0C
38
38
60
60
CC
CC
FC
FC
00
00
ENDCHAR

STARTCHAR C063
ENCODING 51
SWIDTH 1 0
DWIDTH 8 0
BBX 8 16 0 0
BITMAP
78
78
CC
CC
0C
0C
38
38
0C
0C
CC
CC
78
78
00
00
ENDCHAR

STARTCHAR C064
ENCODING 52
SWIDTH 1 0
DWIDTH 8 0
BBX 8 16 0 0
BITMAP
1C
1C
3C
3C
6C
6C
CC
CC
FE
FE
0C
0C
1E
1E
00
00
ENDCHAR

STARTCHAR C065
ENCODING 53
SWIDTH 1 0
DWIDTH 8 0
BBX 8 16 0 0
BITMAP
FC
FC
C0
C0
F8
F8
0C
0C
0C
0C
CC
CC
78
78
00
00
ENDCHAR

STARTCHAR C066
ENCODING 54
SWIDTH 1 0
DWIDTH 8 0
BBX 8 16 0 0
BITMAP
38
38
60
60
C0
C0
F8
F8
CC
CC
CC
CC
78
78
00
00
ENDCHAR

STARTCHAR C067
ENCODING 55
SWIDTH 1 0
DWIDTH 8 0
BBX 8 16 0 0
BITMAP
FC
FC
CC
CC
0C
0C
18
18
30
30
30
30
30
30
00
00
ENDCHAR

STARTCHAR C070
ENCODING 56
SWIDTH 1 0
DWIDTH 8 0
BBX 8 16 0 0
BITMAP
78
78
CC
CC
CC
CC
78
78
CC
CC
CC
CC
78
78
00
00
ENDCHAR

STARTCHAR C071
ENCODING 57
SWIDTH 1 0
DWIDTH 8 0
BBX 8 16 0 0
BITMAP
78
78
CC
CC
CC
CC
7C
7C
0C
0C
18
18
70
70
00
00
ENDCHAR

STARTCHAR C072
ENCODING 58
SWIDTH 1 0
DWIDTH 8 0
BBX 8 16 0 0
BITMAP
00
00
30
30
30
30
00
00
00
00
30
30
30
30
00
00
ENDCHAR

STARTCHAR C073
ENCODING 59
SWIDTH 1 0
DWIDTH 8 0
BBX 8 16 0 0
BITMAP
00
00
30
30
30
30
00
00
00
00
30
30
30
30
60
60
ENDCHAR

STARTCHAR C074
ENCODING 60
SWIDTH 1 0
DWIDTH 8 0
BBX 8 16 0 0
BITMAP
18
18
30
30
60
60
C0
C0
60
60
30
30
18
18
00
00
ENDCHAR

STARTCHAR C075
ENCODING 61
SWIDTH 1 0
DWIDTH 8 0
BBX 8 16 0 0
BITMAP
00
00
00
00
FC
FC
00
00
00
00
FC
FC
00
00
00
00
ENDCHAR

STARTCHAR C076
ENCODING 62
SWIDTH 1 0
DWIDTH 8 0
BBX 8 16 0 0
BITMAP
60
60
30
30
18
18
0C
0C
18
18
30
30
60
60
00
00
ENDCHAR

STARTCHAR C077
ENCODING 63
SWIDTH 1 0
DWIDTH 8 0
BBX 8 16 0 0
BITMAP
78
78
CC
CC
0C
0C
18
18
30
30
00
00
30
30
00
00
ENDCHAR

STARTCHAR C100
ENCODING 64
SWIDTH 1 0
DWIDTH 8 0
BBX 8 16 0 0
BITMAP
7C
7C
C6
C6
DE
DE
DE
DE
DE
DE
C0
C0
78
78
00
00
ENDCHAR

STARTCHAR C101
ENCODING 65
SWIDTH 1 0
DWIDTH 8 0
BBX 8 16 0 0
BITMAP
30
30
78
78
CC
CC
CC
CC
FC
FC
CC
CC
CC
CC
00
00
ENDCHAR

STARTCHAR C102
ENCODING 66
SWIDTH 1 0
DWIDTH 8 0
BBX 8 16 0 0
BITMAP
FC
FC
66
66
66
66
7C
7C
66
66
66
66
FC
FC
00
00
ENDCHAR

STARTCHAR C103
ENCODING 67
SWIDTH 1 0
DWIDTH 8 0
BBX 8 16 0 0
BITMAP
3C
3C
66
66
C0
C0
C0
C0
C0
C0
66
66
3C
3C
00
00
ENDCHAR

STARTCHAR C104
ENCODING 68
SWIDTH 1 0
DWIDTH 8 0
BBX 8 16 0 0
BITMAP
F8
F8
6C
6C
66
66
66
66
66
66
6C
6C
F8
F8
00
00
ENDCHAR

STARTCHAR C105
ENCODING 69
SWIDTH 1 0
DWIDTH 8 0
BBX 8 16 0 0
BITMAP
FE
FE
62
62
68
68
78
78
68
68
62
62
FE
FE
00
00
ENDCHAR

STARTCHAR C106
ENCODING 70
SWIDTH 1 0
DWIDTH 8 0
BBX 8 16 0 0
BITMAP
FE
FE
62
62
68
68
78
78
68
68
60
60
F0
F0
00
00
ENDCHAR

STARTCHAR C107
ENCODING 71
SWIDTH 1 0
DWIDTH 8 0
BBX 8 16 0 0
BITMAP
3C
3C
66
66
C0
C0
C0
C0
CE
CE
66
66
3E
3E
00
00
ENDCHAR

STARTCHAR C110
ENCODING 72
SWIDTH 1 0
DWIDTH 8 0
BBX 8 16 0 0
BITMAP
CC
CC
CC
CC
CC
CC
FC
FC
CC
CC
CC
CC
CC
CC
00
00
ENDCHAR

STARTCHAR C111
ENCODING 73
SWIDTH 1 0
DWIDTH 8 0
BBX 8 16 0 0
BITMAP
78
78
30
30
30
30
30
30
30
30
30
30
78
78
00
00
ENDCHAR

STARTCHAR C112
ENCODING 74
SWIDTH 1 0
DWIDTH 8 0
BBX 8 16 0 0
BITMAP
1E
1E
0C
0C
0C
0C
0C
0C
CC
CC
CC
CC
78
78
00
00
ENDCHAR

STARTCHAR C113
ENCODING 75
SWIDTH 1 0
DWIDTH 8 0
BBX 8 16 0 0
BITMAP
E6
E6
66
66
6C
6C
78
78
6C
6C
66
66
E6
E6
00
00
ENDCHAR

STARTCHAR C114
ENCODING 76
SWIDTH 1 0
DWIDTH 8 0
BBX 8 16 0 0
BITMAP
F0
F0
60
60
60
60
60
60
62
62
66
66
FE
FE
00
00
ENDCHAR

STARTCHAR C115
ENCODING 77
SWIDTH 1 0
DWIDTH 8 0
BBX 8 16 0 0
BITMAP
C6
C6
EE
EE
FE
FE
FE
FE
D6
D6
C6
C6
C6
C6
00
00
ENDCHAR

STARTCHAR C116
ENCODING 78
SWIDTH 1 0
DWIDTH 8 0
BBX 8 16 0 0
BITMAP
C6
C6
E6
E6
F6
F6
DE
DE
CE
CE
C6
C6
C6
C6
00
00
ENDCHAR

STARTCHAR C117
ENCODING 79
SWIDTH 1 0
DWIDTH 8 0
BBX 8 16 0 0
BITMAP
38
38
6C
6C
C6
C6
C6
C6
C6
C6
6C
6C
38
38
00
00
ENDCHAR

STARTCHAR C120
ENCODING 80
SWIDTH 1 0
DWIDTH 8 0
BBX 8 16 0 0
BITMAP
FC
FC
66
66
66
66
7C
7C
60
60
60
60
F0
F0
00
00
ENDCHAR

STARTCHAR C121
ENCODING 81
SWIDTH 1 0
DWIDTH 8 0
BBX 8 16 0 0
BITMAP
78
78
CC
CC
CC
CC
CC
CC
DC
DC
78
78
1C
1C
00
00
ENDCHAR

STARTCHAR C122
ENCODING 82
SWIDTH 1 0
DWIDTH 8 0
BBX 8 16 0 0
BITMAP
FC
FC
66
66
66
66
7C
7C
6C
6C
66
66
E6
E6
00
00
ENDCHAR

STARTCHAR C123
ENCODING 83
SWIDTH 1 0
DWIDTH 8 0
BBX 8 16 0 0
BITMAP
78
78
CC
CC
E0
E0
70
70
1C
1C
CC
CC
78
78
00
00
ENDCHAR

STARTCHAR C124
ENCODING 84
SWIDTH 1 0
DWIDTH 8 0
BBX 8 16 0 0
BITMAP
FC
FC
B4
B4
30
30
30
30
30
30
30
30
78
78
00
00
ENDCHAR

STARTCHAR C125
ENCODING 85
SWIDTH 1 0
DWIDTH 8 0
BBX 8 16 0 0
BITMAP
CC
CC
CC
CC
CC
CC
CC
CC
CC
CC
CC
CC
FC
FC
00
00
ENDCHAR

STARTCHAR C126
ENCODING 86
SWIDTH 1 0
DWIDTH 8 0
BBX 8 16 0 0
BITMAP
CC
CC
CC
CC
CC
CC
CC
CC
CC
CC
78
78
30
30
00
00
ENDCHAR

STARTCHAR C127
ENCODING 87
SWIDTH 1 0
DWIDTH 8 0
BBX 8 16 0 0
BITMAP
C6
C6
C6
C6
C6
C6
D6
D6
FE
FE
EE
EE
C6
C6
00
00
ENDCHAR

STARTCHAR C130
ENCODING 88
SWIDTH 1 0
DWIDTH 8 0
BBX 8 16 0 0
BITMAP
C6
C6
C6
C6
6C
6C
38
38
38
38
6C
6C
C6
C6
00
00
ENDCHAR

STARTCHAR C131
ENCODING 89
SWIDTH 1 0
DWIDTH 8 0
BBX 8 16 0 0
BITMAP
CC
CC
CC
CC
CC
CC
78
78
30
30
30
30
78
78
00
00
ENDCHAR

STARTCHAR C132
ENCODING 90
SWIDTH 1 0
DWIDTH 8 0
BBX 8 16 0 0
BITMAP
FE
FE
C6
C6
8C
8C
18
18
32
32
66
66
FE
FE
00
00
ENDCHAR

STARTCHAR C133
ENCODING 91
SWIDTH 1 0
DWIDTH 8 0
BBX 8 16 0 0
BITMAP
78
78
60
60
60
60
60
60
60
60
60
60
78
78
00
00
ENDCHAR

STARTCHAR C134
ENCODING 92
SWIDTH 1 0
DWIDTH 8 0
BBX 8 16 0 0
BITMAP
C0
C0
60
60
30
30
18
18
0C
0C
06
06
02
02
00
00
ENDCHAR

STARTCHAR C135
ENCODING 93
SWIDTH 1 0
DWIDTH 8 0
BBX 8 16 0 0
BITMAP
78
78
18
18
18
18
18
18
18
18
18
18
78
78
00
00
ENDCHAR

STARTCHAR C136
ENCODING 94
SWIDTH 1 0
DWIDTH 8 0
BBX 8 16 0 0
BITMAP
10
10
38
38
6C
6C
C6
C6
00
00
00
00
00
00
00
00
ENDCHAR

STARTCHAR C137
ENCODING 95
SWIDTH 1 0
DWIDTH 8 0
BBX 8 16 0 0
BITMAP
00
00
00
00
00
00
00
00
00
00
00
00
00
00
FF
FF
ENDCHAR

STARTCHAR C140
ENCODING 96
SWIDTH 1 0
DWIDTH 8 0
BBX 8 16 0 0
BITMAP
30
30
30
30
18
18
00
00
00
00
00
00
00
00
00
00
ENDCHAR

STARTCHAR C141
ENCODING 97
SWIDTH 1 0
DWIDTH 8 0
BBX 8 16 0 0
BITMAP
00
00
00
00
78
78
0C
0C
7C
7C
CC
CC
76
76
00
00
ENDCHAR

STARTCHAR C142
ENCODING 98
SWIDTH 1 0
DWIDTH 8 0
BBX 8 16 0 0
BITMAP
E0
E0
60
60
60
60
7C
7C
66
66
66
66
DC
DC
00
00
ENDCHAR

STARTCHAR C143
ENCODING 99
SWIDTH 1 0
DWIDTH 8 0
BBX 8 16 0 0
BITMAP
00
00
00
00
78
78
CC
CC
C0
C0
CC
CC
78
78
00
00
ENDCHAR

STARTCHAR C144
ENCODING 100
SWIDTH 1 0
DWIDTH 8 0
BBX 8 16 0 0
BITMAP
1C
1C
0C
0C
0C
0C
7C
7C
CC
CC
CC
CC
76
76
00
00
ENDCHAR

STARTCHAR C145
ENCODING 101
SWIDTH 1 0
DWIDTH 8 0
BBX 8 16 0 0
BITMAP
00
00
00
00
78
78
CC
CC
FC
FC
C0
C0
78
78
00
00
ENDCHAR

STARTCHAR C146
ENCODING 102
SWIDTH 1 0
DWIDTH 8 0
BBX 8 16 0 0
BITMAP
38
38
6C
6C
60
60
F0
F0
60
60
60
60
F0
F0
00
00
ENDCHAR

STARTCHAR C147
ENCODING 103
SWIDTH 1 0
DWIDTH 8 0
BBX 8 16 0 0
BITMAP
00
00
00
00
76
76
CC
CC
CC
CC
7C
7C
0C
0C
F8
F8
ENDCHAR

STARTCHAR C150
ENCODING 104
SWIDTH 1 0
DWIDTH 8 0
BBX 8 16 0 0
BITMAP
E0
E0
60
60
6C
6C
76
76
66
66
66
66
E6
E6
00
00
ENDCHAR

STARTCHAR C151
ENCODING 105
SWIDTH 1 0
DWIDTH 8 0
BBX 8 16 0 0
BITMAP
30
30
00
00
70
70
30
30
30
30
30
30
78
78
00
00
ENDCHAR

STARTCHAR C152
ENCODING 106
SWIDTH 1 0
DWIDTH 8 0
BBX 8 16 0 0
BITMAP
0C
0C
00
00
0C
0C
0C
0C
0C
0C
CC
CC
CC
CC
78
78
ENDCHAR

STARTCHAR C153
ENCODING 107
SWIDTH 1 0
DWIDTH 8 0
BBX 8 16 0 0
BITMAP
E0
E0
60
60
66
66
6C
6C
78
78
6C
6C
E6
E6
00
00
ENDCHAR

STARTCHAR C154
ENCODING 108
SWIDTH 1 0
DWIDTH 8 0
BBX 8 16 0 0
BITMAP
70
70
30
30
30
30
30
30
30
30
30
30
78
78
00
00
ENDCHAR

STARTCHAR C155
ENCODING 109
SWIDTH 1 0
DWIDTH 8 0
BBX 8 16 0 0
BITMAP
00
00
00
00
CC
CC
FE
FE
FE
FE
D6
D6
C6
C6
00
00
ENDCHAR

STARTCHAR C156
ENCODING 110
SWIDTH 1 0
DWIDTH 8 0
BBX 8 16 0 0
BITMAP
00
00
00
00
F8
F8
CC
CC
CC
CC
CC
CC
CC
CC
00
00
ENDCHAR

STARTCHAR C157
ENCODING 111
SWIDTH 1 0
DWIDTH 8 0
BBX 8 16 0 0
BITMAP
00
00
00
00
78
78
CC
CC
CC
CC
CC
CC
78
78
00
00
ENDCHAR

STARTCHAR C160
ENCODING 112
SWIDTH 1 0
DWIDTH 8 0
BBX 8 16 0 0
BITMAP
00
00
00
00
DC
DC
66
66
66
66
7C
7C
60
60
F0
F0
ENDCHAR

STARTCHAR C161
ENCODING 113
SWIDTH 1 0
DWIDTH 8 0
BBX 8 16 0 0
BITMAP
00
00
00
00
76
76
CC
CC
CC
CC
7C
7C
0C
0C
1E
1E
ENDCHAR

STARTCHAR C162
ENCODING 114
SWIDTH 1 0
DWIDTH 8 0
BBX 8 16 0 0
BITMAP
00
00
00
00
DC
DC
76
76
66
66
60
60
F0
F0
00
00
ENDCHAR

STARTCHAR C163
ENCODING 115
SWIDTH 1 0
DWIDTH 8 0
BBX 8 16 0 0
BITMAP
00
00
00
00
7C
7C
C0
C0
78
78
0C
0C
F8
F8
00
00
ENDCHAR

STARTCHAR C164
ENCODING 116
SWIDTH 1 0
DWIDTH 8 0
BBX 8 16 0 0
BITMAP
10
10
30
30
7C
7C
30
30
30
30
34
34
18
18
00
00
ENDCHAR

STARTCHAR C165
ENCODING 117
SWIDTH 1 0
DWIDTH 8 0
BBX 8 16 0 0
BITMAP
00
00
00
00
CC
CC
CC
CC
CC
CC
CC
CC
76
76
00
00
ENDCHAR

STARTCHAR C166
ENCODING 118
SWIDTH 1 0
DWIDTH 8 0
BBX 8 16 0 0
BITMAP
00
00
00
00
CC
CC
CC
CC
CC
CC
78
78
30
30
00
00
ENDCHAR

STARTCHAR C167
ENCODING 119
SWIDTH 1 0
DWIDTH 8 0
BBX 8 16 0 0
BITMAP
00
00
00
00
C6
C6
D6
D6
FE
FE
FE
FE
6C
6C
00
00
ENDCHAR

STARTCHAR C170
ENCODING 120
SWIDTH 1 0
DWIDTH 8 0
BBX 8 16 0 0
BITMAP
00
00
00
00
C6
C6
6C
6C
38
38
6C
6C
C6
C6
00
00
ENDCHAR

STARTCHAR C171
ENCODING 121
SWIDTH 1 0
DWIDTH 8 0
BBX 8 16 0 0
BITMAP
00
00
00
00
CC
CC
CC
CC
CC
CC
7C
7C
0C
0C
F8
F8
ENDCHAR

STARTCHAR C172
ENCODING 122
SWIDTH 1 0
DWIDTH 8 0
BBX 8 16 0 0
BITMAP
00
00
00
00
FC
FC
98
98
30
30
64
64
FC
FC
00
00
ENDCHAR

STARTCHAR C173
ENCODING 123
SWIDTH 1 0
DWIDTH 8 0
BBX 8 16 0 0
BITMAP
1C
1C
30
30
30
30
E0
E0
30
30
30
30
1C
1C
00
00
ENDCHAR

STARTCHAR C174
ENCODING 124
SWIDTH 1 0
DWIDTH 8 0
BBX 8 16 0 0
BITMAP
18
18
18
18
18
18
00
00
18
18
18
18
18
18
00
00
ENDCHAR

STARTCHAR C175
ENCODING 125
SWIDTH 1 0
DWIDTH 8 0
BBX 8 16 0 0
BITMAP
E0
E0
30
30
30
30
1C
1C
30
30
30
30
E0
E0
00
00
ENDCHAR

STARTCHAR C176
ENCODING 126
SWIDTH 1 0
DWIDTH 8 0
BBX 8 16 0 0
BITMAP
76
76
DC
DC
00
00
00
00
00
00
00
00
00
00
00
00
ENDCHAR

STARTCHAR C177
ENCODING 127
SWIDTH 1 0
DWIDTH 8 0
BBX 8 16 0 0
BITMAP
00
00
10
10
38
38
6C
6C
C6
C6
C6
C6
FE
FE
00
00
ENDCHAR

STARTCHAR C200
ENCODING 128
SWIDTH 1 0
DWIDTH 8 0
BBX 8 16 0 0
BITMAP
78
78
CC
CC
C0
C0
CC
CC
78
78
18
18
0C
0C
78
78
ENDCHAR

STARTCHAR C201
ENCODING 129
SWIDTH 1 0
DWIDTH 8 0
BBX 8 16 0 0
BITMAP
00
00
CC
CC
00
00
CC
CC
CC
CC
CC
CC
7E
7E
00
00
ENDCHAR

STARTCHAR C202
ENCODING 130
SWIDTH 1 0
DWIDTH 8 0
BBX 8 16 0 0
BITMAP
1C
1C
00
00
78
78
CC
CC
FC
FC
C0
C0
78
78
00
00
ENDCHAR

STARTCHAR C203
ENCODING 131
SWIDTH 1 0
DWIDTH 8 0
BBX 8 16 0 0
BITMAP
7E
7E
C3
C3
3C
3C
06
06
3E
3E
66
66
3F
3F
00
00
ENDCHAR

STARTCHAR C204
ENCODING 132
SWIDTH 1 0
DWIDTH 8 0
BBX 8 16 0 0
BITMAP
CC
CC
00
00
78
78
0C
0C
7C
7C
CC
CC
7E
7E
00
00
ENDCHAR

STARTCHAR C205
ENCODING 133
SWIDTH 1 0
DWIDTH 8 0
BBX 8 16 0 0
BITMAP
E0
E0
00
00
78
78
0C
0C
7C
7C
CC
CC
7E
7E
00
00
ENDCHAR

STARTCHAR C206
ENCODING 134
SWIDTH 1 0
DWIDTH 8 0
BBX 8 16 0 0
BITMAP
30
30
30
30
78
78
0C
0C
7C
7C
CC
CC
7E
7E
00
00
ENDCHAR

STARTCHAR C207
ENCODING 135
SWIDTH 1 0
DWIDTH 8 0
BBX 8 16 0 0
BITMAP
00
00
00
00
78
78
C0
C0
C0
C0
78
78
0C
0C
38
38
ENDCHAR

STARTCHAR C210
ENCODING 136
SWIDTH 1 0
DWIDTH 8 0
BBX 8 16 0 0
BITMAP
7E
7E
C3
C3
3C
3C
66
66
7E
7E
60
60
3C
3C
00
00
ENDCHAR

STARTCHAR C211
ENCODING 137
SWIDTH 1 0
DWIDTH 8 0
BBX 8 16 0 0
BITMAP
CC
CC
00
00
78
78
CC
CC
FC
FC
C0
C0
78
78
00
00
ENDCHAR

STARTCHAR C212
ENCODING 138
SWIDTH 1 0
DWIDTH 8 0
BBX 8 16 0 0
BITMAP
E0
E0
00
00
78
78
CC
CC
FC
FC
C0
C0
78
78
00
00
ENDCHAR

STARTCHAR C213
ENCODING 139
SWIDTH 1 0
DWIDTH 8 0
BBX 8 16 0 0
BITMAP
CC
CC
00
00
70
70
30
30
30
30
30
30
78
78
00
00
ENDCHAR

STARTCHAR C214
ENCODING 140
SWIDTH 1 0
DWIDTH 8 0
BBX 8 16 0 0
BITMAP
7C
7C
C6
C6
38
38
18
18
18
18
18
18
3C
3C
00
00
ENDCHAR

STARTCHAR C215
ENCODING 141
SWIDTH 1 0
DWIDTH 8 0
BBX 8 16 0 0
BITMAP
E0
E0
00
00
70
70
30
30
30
30
30
30
78
78
00
00
ENDCHAR

STARTCHAR C216
ENCODING 142
SWIDTH 1 0
DWIDTH 8 0
BBX 8 16 0 0
BITMAP
C6
C6
38
38
6C
6C
C6
C6
FE
FE
C6
C6
C6
C6
00
00
ENDCHAR

STARTCHAR C217
ENCODING 143
SWIDTH 1 0
DWIDTH 8 0
BBX 8 16 0 0
BITMAP
30
30
30
30
00
00
78
78
CC
CC
FC
FC
CC
CC
00
00
ENDCHAR

STARTCHAR C220
ENCODING 144
SWIDTH 1 0
DWIDTH 8 0
BBX 8 16 0 0
BITMAP
1C
1C
00
00
FC
FC
60
60
78
78
60
60
FC
FC
00
00
ENDCHAR

STARTCHAR C221
ENCODING 145
SWIDTH 1 0
DWIDTH 8 0
BBX 8 16 0 0
BITMAP
00
00
00
00
7F
7F
0C
0C
7F
7F
CC
CC
7F
7F
00
00
ENDCHAR

STARTCHAR C222
ENCODING 146
SWIDTH 1 0
DWIDTH 8 0
BBX 8 16 0 0
BITMAP
3E
3E
6C
6C
CC
CC
FE
FE
CC
CC
CC
CC
CE
CE
00
00
ENDCHAR

STARTCHAR C223
ENCODING 147
SWIDTH 1 0
DWIDTH 8 0
BBX 8 16 0 0
BITMAP
78
78
CC
CC
00
00
78
78
CC
CC
CC
CC
78
78
00
00
ENDCHAR

STARTCHAR C224
ENCODING 148
SWIDTH 1 0
DWIDTH 8 0
BBX 8 16 0 0
BITMAP
00
00
CC
CC
00
00
78
78
CC
CC
CC
CC
78
78
00
00
ENDCHAR

STARTCHAR C225
ENCODING 149
SWIDTH 1 0
DWIDTH 8 0
BBX 8 16 0 0
BITMAP
00
00
E0
E0
00
00
78
78
CC
CC
CC
CC
78
78
00
00
ENDCHAR

STARTCHAR C226
ENCODING 150
SWIDTH 1 0
DWIDTH 8 0
BBX 8 16 0 0
BITMAP
78
78
CC
CC
00
00
CC
CC
CC
CC
CC
CC
7E
7E
00
00
ENDCHAR

STARTCHAR C227
ENCODING 151
SWIDTH 1 0
DWIDTH 8 0
BBX 8 16 0 0
BITMAP
00
00
E0
E0
00
00
CC
CC
CC
CC
CC
CC
7E
7E
00
00
ENDCHAR

STARTCHAR C230
ENCODING 152
SWIDTH 1 0
DWIDTH 8 0
BBX 8 16 0 0
BITMAP
00
00
CC
CC
00
00
CC
CC
CC
CC
7C
7C
0C
0C
F8
F8
ENDCHAR

STARTCHAR C231
ENCODING 153
SWIDTH 1 0
DWIDTH 8 0
BBX 8 16 0 0
BITMAP
C3
C3
18
18
3C
3C
66
66
66
66
3C
3C
18
18
00
00
ENDCHAR

STARTCHAR C232
ENCODING 154
SWIDTH 1 0
DWIDTH 8 0
BBX 8 16 0 0
BITMAP
CC
CC
00
00
CC
CC
CC
CC
CC
CC
CC
CC
78
78
00
00
ENDCHAR

STARTCHAR C233
ENCODING 155
SWIDTH 1 0
DWIDTH 8 0
BBX 8 16 0 0
BITMAP
18
18
18
18
7E
7E
C0
C0
C0
C0
7E
7E
18
18
18
18
ENDCHAR

STARTCHAR C234
ENCODING 156
SWIDTH 1 0
DWIDTH 8 0
BBX 8 16 0 0
BITMAP
38
38
6C
6C
64
64
F0
F0
60
60
E6
E6
FC
FC
00
00
ENDCHAR

STARTCHAR C235
ENCODING 157
SWIDTH 1 0
DWIDTH 8 0
BBX 8 16 0 0
BITMAP
CC
CC
CC
CC
78
78
FC
FC
30
30
FC
FC
30
30
30
30
ENDCHAR

STARTCHAR C236
ENCODING 158
SWIDTH 1 0
DWIDTH 8 0
BBX 8 16 0 0
BITMAP
F8
F8
CC
CC
CC
CC
FA
FA
C6
C6
CF
CF
C6
C6
C7
C7
ENDCHAR

STARTCHAR C237
ENCODING 159
SWIDTH 1 0
DWIDTH 8 0
BBX 8 16 0 0
BITMAP
0E
0E
1B
1B
18
18
3C
3C
18
18
18
18
D8
D8
70
70
ENDCHAR

STARTCHAR C240
ENCODING 160
SWIDTH 1 0
DWIDTH 8 0
BBX 8 16 0 0
BITMAP
1C
1C
00
00
78
78
0C
0C
7C
7C
CC
CC
7E
7E
00
00
ENDCHAR

STARTCHAR C241
ENCODING 161
SWIDTH 1 0
DWIDTH 8 0
BBX 8 16 0 0
BITMAP
38
38
00
00
70
70
30
30
30
30
30
30
78
78
00
00
ENDCHAR

STARTCHAR C242
ENCODING 162
SWIDTH 1 0
DWIDTH 8 0
BBX 8 16 0 0
BITMAP
00
00
1C
1C
00
00
78
78
CC
CC
CC
CC
78
78
00
00
ENDCHAR

STARTCHAR C243
ENCODING 163
SWIDTH 1 0
DWIDTH 8 0
BBX 8 16 0 0
BITMAP
00
00
1C
1C
00
00
CC
CC
CC
CC
CC
CC
7E
7E
00
00
ENDCHAR

STARTCHAR C244
ENCODING 164
SWIDTH 1 0
DWIDTH 8 0
BBX 8 16 0 0
BITMAP
00
00
F8
F8
00
00
F8
F8
CC
CC
CC
CC
CC
CC
00
00
ENDCHAR

STARTCHAR C245
ENCODING 165
SWIDTH 1 0
DWIDTH 8 0
BBX 8 16 0 0
BITMAP
FC
FC
00
00
CC
CC
EC
EC
FC
FC
DC
DC
CC
CC
00
00
ENDCHAR

STARTCHAR C246
ENCODING 166
SWIDTH 1 0
DWIDTH 8 0
BBX 8 16 0 0
BITMAP
3C
3C
6C
6C
6C
6C
3E
3E
00
00
7E
7E
00
00
00
00
ENDCHAR

STARTCHAR C247
ENCODING 167
SWIDTH 1 0
DWIDTH 8 0
BBX 8 16 0 0
BITMAP
38
38
6C
6C
6C
6C
38
38
00
00
7C
7C
00
00
00
00
ENDCHAR

STARTCHAR C250
ENCODING 168
SWIDTH 1 0
DWIDTH 8 0
BBX 8 16 0 0
BITMAP
30
30
00
00
30
30
60
60
C0
C0
CC
CC
78
78
00
00
ENDCHAR

STARTCHAR C251
ENCODING 169
SWIDTH 1 0
DWIDTH 8 0
BBX 8 16 0 0
BITMAP
00
00
00
00
00
00
FC
FC
C0
C0
C0
C0
00
00
00
00
ENDCHAR

STARTCHAR C252
ENCODING 170
SWIDTH 1 0
DWIDTH 8 0
BBX 8 16 0 0
BITMAP
00
00
00
00
00
00
FC
FC
0C
0C
0C
0C
00
00
00
00
ENDCHAR

STARTCHAR C253
ENCODING 171
SWIDTH 1 0
DWIDTH 8 0
BBX 8 16 0 0
BITMAP
C3
C3
C6
C6
CC
CC
DE
DE
33
33
66
66
CC
CC
0F
0F
ENDCHAR

STARTCHAR C254
ENCODING 172
SWIDTH 1 0
DWIDTH 8 0
BBX 8 16 0 0
BITMAP
C3
C3
C6
C6
CC
CC
DB
DB
37
37
6F
6F
CF
CF
03
03
ENDCHAR

STARTCHAR C255
ENCODING 173
SWIDTH 1 0
DWIDTH 8 0
BBX 8 16 0 0
BITMAP
18
18
18
18
00
00
18
18
18
18
18
18
18
18
00
00
ENDCHAR

STARTCHAR C256
ENCODING 174
SWIDTH 1 0
DWIDTH 8 0
BBX 8 16 0 0
BITMAP
00
00
33
33
66
66
CC
CC
66
66
33
33
00
00
00
00
ENDCHAR

STARTCHAR C257
ENCODING 175
SWIDTH 1 0
DWIDTH 8 0
BBX 8 16 0 0
BITMAP
00
00
CC
CC
66
66
33
33
66
66
CC
CC
00
00
00
00
ENDCHAR

STARTCHAR C260
ENCODING 176
SWIDTH 1 0
DWIDTH 8 0
BBX 8 16 0 0
BITMAP
22
22
88
88
22
22
88
88
22
22
88
88
22
22
88
88
ENDCHAR

STARTCHAR C261
ENCODING 177
SWIDTH 1 0
DWIDTH 8 0
BBX 8 16 0 0
BITMAP
55
55
AA
AA
55
55
AA
AA
55
55
AA
AA
55
55
AA
AA
ENDCHAR

STARTCHAR C262
ENCODING 178
SWIDTH 1 0
DWIDTH 8 0
BBX 8 16 0 0
BITMAP
DB
DB
77
77
DB
DB
EE
EE
DB
DB
77
77
DB
DB
EE
EE
ENDCHAR

STARTCHAR C263
ENCODING 179
SWIDTH 1 0
DWIDTH 8 0
BBX 8 16 0 0
BITMAP
18
18
18
18
18
18
18
18
18
18
18
18
18
18
18
18
ENDCHAR

STARTCHAR C264
ENCODING 180
SWIDTH 1 0
DWIDTH 8 0
BBX 8 16 0 0
BITMAP
18
18
18
18
18
18
18
18
F8
F8
18
18
18
18
18
18
ENDCHAR

STARTCHAR C265
ENCODING 181
SWIDTH 1 0
DWIDTH 8 0
BBX 8 16 0 0
BITMAP
18
18
18
18
F8
F8
18
18
F8
F8
18
18
18
18
18
18
ENDCHAR

STARTCHAR C266
ENCODING 182
SWIDTH 1 0
DWIDTH 8 0
BBX 8 16 0 0
BITMAP
36
36
36
36
36
36
36
36
F6
F6
36
36
36
36
36
36
ENDCHAR

STARTCHAR C267
ENCODING 183
SWIDTH 1 0
DWIDTH 8 0
BBX 8 16 0 0
BITMAP
00
00
00
00
00
00
00
00
FE
FE
36
36
36
36
36
36
ENDCHAR

STARTCHAR C270
ENCODING 184
SWIDTH 1 0
DWIDTH 8 0
BBX 8 16 0 0
BITMAP
00
00
00
00
F8
F8
18
18
F8
F8
18
18
18
18
18
18
ENDCHAR

STARTCHAR C271
ENCODING 185
SWIDTH 1 0
DWIDTH 8 0
BBX 8 16 0 0
BITMAP
36
36
36
36
F6
F6
06
06
F6
F6
36
36
36
36
36
36
ENDCHAR

STARTCHAR C272
ENCODING 186
SWIDTH 1 0
DWIDTH 8 0
BBX 8 16 0 0
BITMAP
36
36
36
36
36
36
36
36
36
36
36
36
36
36
36
36
ENDCHAR

STARTCHAR C273
ENCODING 187
SWIDTH 1 0
DWIDTH 8 0
BBX 8 16 0 0
BITMAP
00
00
00
00
FE
FE
06
06
F6
F6
36
36
36
36
36
36
ENDCHAR

STARTCHAR C274
ENCODING 188
SWIDTH 1 0
DWIDTH 8 0
BBX 8 16 0 0
BITMAP
36
36
36
36
F6
F6
06
06
FE
FE
00
00
00
00
00
00
ENDCHAR

STARTCHAR C275
ENCODING 189
SWIDTH 1 0
DWIDTH 8 0
BBX 8 16 0 0
BITMAP
36
36
36
36
36
36
36
36
FE
FE
00
00
00
00
00
00
ENDCHAR

STARTCHAR C276
ENCODING 190
SWIDTH 1 0
DWIDTH 8 0
BBX 8 16 0 0
BITMAP
18
18
18
18
F8
F8
18
18
F8
F8
00
00
00
00
00
00
ENDCHAR

STARTCHAR C277
ENCODING 191
SWIDTH 1 0
DWIDTH 8 0
BBX 8 16 0 0
BITMAP
00
00
00
00
00
00
00
00
F8
F8
18
18
18
18
18
18
ENDCHAR

STARTCHAR C300
ENCODING 192
SWIDTH 1 0
DWIDTH 8 0
BBX 8 16 0 0
BITMAP
18
18
18
18
18
18
18
18
1F
1F
00
00
00
00
00
00
ENDCHAR

STARTCHAR C301
ENCODING 193
SWIDTH 1 0
DWIDTH 8 0
BBX 8 16 0 0
BITMAP
18
18
18
18
18
18
18
18
FF
FF
00
00
00
00
00
00
ENDCHAR

STARTCHAR C302
ENCODING 194
SWIDTH 1 0
DWIDTH 8 0
BBX 8 16 0 0
BITMAP
00
00
00
00
00
00
00
00
FF
FF
18
18
18
18
18
18
ENDCHAR

STARTCHAR C303
ENCODING 195
SWIDTH 1 0
DWIDTH 8 0
BBX 8 16 0 0
BITMAP
18
18
18
18
18
18
18
18
1F
1F
18
18
18
18
18
18
ENDCHAR

STARTCHAR C304
ENCODING 196
SWIDTH 1 0
DWIDTH 8 0
BBX 8 16 0 0
BITMAP
00
00
00
00
00
00
00
00
FF
FF
00
00
00
00
00
00
ENDCHAR

STARTCHAR C305
ENCODING 197
SWIDTH 1 0
DWIDTH 8 0
BBX 8 16 0 0
BITMAP
18
18
18
18
18
18
18
18
FF
FF
18
18
18
18
18
18
ENDCHAR

STARTCHAR C306
ENCODING 198
SWIDTH 1 0
DWIDTH 8 0
BBX 8 16 0 0
BITMAP
18
18
18
18
1F
1F
18
18
1F
1F
18
18
18
18
18
18
ENDCHAR

STARTCHAR C307
ENCODING 199
SWIDTH 1 0
DWIDTH 8 0
BBX 8 16 0 0
BITMAP
36
36
36
36
36
36
36
36
37
37
36
36
36
36
36
36
ENDCHAR

STARTCHAR C310
ENCODING 200
SWIDTH 1 0
DWIDTH 8 0
BBX 8 16 0 0
BITMAP
36
36
36
36
37
37
30
30
3F
3F
00
00
00
00
00
00
ENDCHAR

STARTCHAR C311
ENCODING 201
SWIDTH 1 0
DWIDTH 8 0
BBX 8 16 0 0
BITMAP
00
00
00
00
3F
3F
30
30
37
37
36
36
36
36
36
36
ENDCHAR

STARTCHAR C312
ENCODING 202
SWIDTH 1 0
DWIDTH 8 0
BBX 8 16 0 0
BITMAP
36
36
36
36
F7
F7
00
00
FF
FF
00
00
00
00
00
00
ENDCHAR

STARTCHAR C313
ENCODING 203
SWIDTH 1 0
DWIDTH 8 0
BBX 8 16 0 0
BITMAP
00
00
00
00
FF
FF
00
00
F7
F7
36
36
36
36
36
36
ENDCHAR

STARTCHAR C314
ENCODING 204
SWIDTH 1 0
DWIDTH 8 0
BBX 8 16 0 0
BITMAP
36
36
36
36
37
37
30
30
37
37
36
36
36
36
36
36
ENDCHAR

STARTCHAR C315
ENCODING 205
SWIDTH 1 0
DWIDTH 8 0
BBX 8 16 0 0
BITMAP
00
00
00
00
FF
FF
00
00
FF
FF
00
00
00
00
00
00
ENDCHAR

STARTCHAR C316
ENCODING 206
SWIDTH 1 0
DWIDTH 8 0
BBX 8 16 0 0
BITMAP
36
36
36
36
F7
F7
00
00
F7
F7
36
36
36
36
36
36
ENDCHAR

STARTCHAR C317
ENCODING 207
SWIDTH 1 0
DWIDTH 8 0
BBX 8 16 0 0
BITMAP
18
18
18
18
FF
FF
00
00
FF
FF
00
00
00
00
00
00
ENDCHAR

STARTCHAR C320
ENCODING 208
SWIDTH 1 0
DWIDTH 8 0
BBX 8 16 0 0
BITMAP
36
36
36
36
36
36
36
36
FF
FF
00
00
00
00
00
00
ENDCHAR

STARTCHAR C321
ENCODING 209
SWIDTH 1 0
DWIDTH 8 0
BBX 8 16 0 0
BITMAP
00
00
00
00
FF
FF
00
00
FF
FF
18
18
18
18
18
18
ENDCHAR

STARTCHAR C322
ENCODING 210
SWIDTH 1 0
DWIDTH 8 0
BBX 8 16 0 0
BITMAP
00
00
00
00
00
00
00
00
FF
FF
36
36
36
36
36
36
ENDCHAR

STARTCHAR C323
ENCODING 211
SWIDTH 1 0
DWIDTH 8 0
BBX 8 16 0 0
BITMAP
36
36
36
36
36
36
36
36
3F
3F
00
00
00
00
00
00
ENDCHAR

STARTCHAR C324
ENCODING 212
SWIDTH 1 0
DWIDTH 8 0
BBX 8 16 0 0
BITMAP
18
18
18
18
1F
1F
18
18
1F
1F
00
00
00
00
00
00
ENDCHAR

STARTCHAR C325
ENCODING 213
SWIDTH 1 0
DWIDTH 8 0
BBX 8 16 0 0
BITMAP
00
00
00
00
1F
1F
18
18
1F
1F
18
18
18
18
18
18
ENDCHAR

STARTCHAR C326
ENCODING 214
SWIDTH 1 0
DWIDTH 8 0
BBX 8 16 0 0
BITMAP
00
00
00
00
00
00
00
00
3F
3F
36
36
36
36
36
36
ENDCHAR

STARTCHAR C327
ENCODING 215
SWIDTH 1 0
DWIDTH 8 0
BBX 8 16 0 0
BITMAP
36
36
36
36
36
36
36
36
FF
FF
36
36
36
36
36
36
ENDCHAR

STARTCHAR C330
ENCODING 216
SWIDTH 1 0
DWIDTH 8 0
BBX 8 16 0 0
BITMAP
18
18
18
18
FF
FF
18
18
FF
FF
18
18
18
18
18
18
ENDCHAR

STARTCHAR C331
ENCODING 217
SWIDTH 1 0
DWIDTH 8 0
BBX 8 16 0 0
BITMAP
18
18
18
18
18
18
18
18
F8
F8
00
00
00
00
00
00
ENDCHAR

STARTCHAR C332
ENCODING 218
SWIDTH 1 0
DWIDTH 8 0
BBX 8 16 0 0
BITMAP
00
00
00
00
00
00
00
00
1F
1F
18
18
18
18
18
18
ENDCHAR

STARTCHAR C333
ENCODING 219
SWIDTH 1 0
DWIDTH 8 0
BBX 8 16 0 0
BITMAP
FF
FF
FF
FF
FF
FF
FF
FF
FF
FF
FF
FF
FF
FF
FF
FF
ENDCHAR

STARTCHAR C334
ENCODING 220
SWIDTH 1 0
DWIDTH 8 0
BBX 8 16 0 0
BITMAP
00
00
00
00
00
00
00
00
FF
FF
FF
FF
FF
FF
FF
FF
ENDCHAR

STARTCHAR C335
ENCODING 221
SWIDTH 1 0
DWIDTH 8 0
BBX 8 16 0 0
BITMAP
F0
F0
F0
F0
F0
F0
F0
F0
F0
F0
F0
F0
F0
F0
F0
F0
ENDCHAR

STARTCHAR C336
ENCODING 222
SWIDTH 1 0
DWIDTH 8 0
BBX 8 16 0 0
BITMAP
0F
0F
0F
0F
0F
0F
0F
0F
0F
0F
0F
0F
0F
0F
0F
0F
ENDCHAR

STARTCHAR C337
ENCODING 223
SWIDTH 1 0
DWIDTH 8 0
BBX 8 16 0 0
BITMAP
FF
FF
FF
FF
FF
FF
FF
FF
00
00
00
00
00
00
00
00
ENDCHAR

STARTCHAR C340
ENCODING 224
SWIDTH 1 0
DWIDTH 8 0
BBX 8 16 0 0
BITMAP
00
00
00
00
76
76
DC
DC
C8
C8
DC
DC
76
76
00
00
ENDCHAR

STARTCHAR C341
ENCODING 225
SWIDTH 1 0
DWIDTH 8 0
BBX 8 16 0 0
BITMAP
00
00
78
78
CC
CC
F8
F8
CC
CC
F8
F8
C0
C0
C0
C0
ENDCHAR

STARTCHAR C342
ENCODING 226
SWIDTH 1 0
DWIDTH 8 0
BBX 8 16 0 0
BITMAP
00
00
FC
FC
CC
CC
C0
C0
C0
C0
C0
C0
C0
C0
00
00
ENDCHAR

STARTCHAR C343
ENCODING 227
SWIDTH 1 0
DWIDTH 8 0
BBX 8 16 0 0
BITMAP
00
00
FE
FE
6C
6C
6C
6C
6C
6C
6C
6C
6C
6C
00
00
ENDCHAR

STARTCHAR C344
ENCODING 228
SWIDTH 1 0
DWIDTH 8 0
BBX 8 16 0 0
BITMAP
FC
FC
CC
CC
60
60
30
30
60
60
CC
CC
FC
FC
00
00
ENDCHAR

STARTCHAR C345
ENCODING 229
SWIDTH 1 0
DWIDTH 8 0
BBX 8 16 0 0
BITMAP
00
00
00
00
7E
7E
D8
D8
D8
D8
D8
D8
70
70
00
00
ENDCHAR

STARTCHAR C346
ENCODING 230
SWIDTH 1 0
DWIDTH 8 0
BBX 8 16 0 0
BITMAP
00
00
66
66
66
66
66
66
66
66
7C
7C
60
60
C0
C0
ENDCHAR

STARTCHAR C347
ENCODING 231
SWIDTH 1 0
DWIDTH 8 0
BBX 8 16 0 0
BITMAP
00
00
76
76
DC
DC
18
18
18
18
18
18
18
18
00
00
ENDCHAR

STARTCHAR C350
ENCODING 232
SWIDTH 1 0
DWIDTH 8 0
BBX 8 16 0 0
BITMAP
FC
FC
30
30
78
78
CC
CC
CC
CC
78
78
30
30
FC
FC
ENDCHAR

STARTCHAR C351
ENCODING 233
SWIDTH 1 0
DWIDTH 8 0
BBX 8 16 0 0
BITMAP
38
38
6C
6C
C6
C6
FE
FE
C6
C6
6C
6C
38
38
00
00
ENDCHAR

STARTCHAR C352
ENCODING 234
SWIDTH 1 0
DWIDTH 8 0
BBX 8 16 0 0
BITMAP
38
38
6C
6C
C6
C6
C6
C6
6C
6C
6C
6C
EE
EE
00
00
ENDCHAR

STARTCHAR C353
ENCODING 235
SWIDTH 1 0
DWIDTH 8 0
BBX 8 16 0 0
BITMAP
1C
1C
30
30
18
18
7C
7C
CC
CC
CC
CC
78
78
00
00
ENDCHAR

STARTCHAR C354
ENCODING 236
SWIDTH 1 0
DWIDTH 8 0
BBX 8 16 0 0
BITMAP
00
00
00
00
7E
7E
DB
DB
DB
DB
7E
7E
00
00
00
00
ENDCHAR

STARTCHAR C355
ENCODING 237
SWIDTH 1 0
DWIDTH 8 0
BBX 8 16 0 0
BITMAP
06
06
0C
0C
7E
7E
DB
DB
DB
DB
7E
7E
60
60
C0
C0
ENDCHAR

STARTCHAR C356
ENCODING 238
SWIDTH 1 0
DWIDTH 8 0
BBX 8 16 0 0
BITMAP
38
38
60
60
C0
C0
F8
F8
C0
C0
60
60
38
38
00
00
ENDCHAR

STARTCHAR C357
ENCODING 239
SWIDTH 1 0
DWIDTH 8 0
BBX 8 16 0 0
BITMAP
78
78
CC
CC
CC
CC
CC
CC
CC
CC
CC
CC
CC
CC
00
00
ENDCHAR

STARTCHAR C360
ENCODING 240
SWIDTH 1 0
DWIDTH 8 0
BBX 8 16 0 0
BITMAP
00
00
FC
FC
00
00
FC
FC
00
00
FC
FC
00
00
00
00
ENDCHAR

STARTCHAR C361
ENCODING 241
SWIDTH 1 0
DWIDTH 8 0
BBX 8 16 0 0
BITMAP
30
30
30
30
FC
FC
30
30
30
30
00
00
FC
FC
00
00
ENDCHAR

STARTCHAR C362
ENCODING 242
SWIDTH 1 0
DWIDTH 8 0
BBX 8 16 0 0
BITMAP
60
60
30
30
18
18
30
30
60
60
00
00
FC
FC
00
00
ENDCHAR

STARTCHAR C363
ENCODING 243
SWIDTH 1 0
DWIDTH 8 0
BBX 8 16 0 0
BITMAP
18
18
30
30
60
60
30
30
18
18
00
00
FC
FC
00
00
ENDCHAR

STARTCHAR C364
ENCODING 244
SWIDTH 1 0
DWIDTH 8 0
BBX 8 16 0 0
BITMAP
0E
0E
1B
1B
1B
1B
18
18
18
18
18
18
18
18
18
18
ENDCHAR

STARTCHAR C365
ENCODING 245
SWIDTH 1 0
DWIDTH 8 0
BBX 8 16 0 0
BITMAP
18
18
18
18
18
18
18
18
18
18
D8
D8
D8
D8
70
70
ENDCHAR

STARTCHAR C366
ENCODING 246
SWIDTH 1 0
DWIDTH 8 0
BBX 8 16 0 0
BITMAP
30
30
30
30
00
00
FC
FC
00
00
30
30
30
30
00
00
ENDCHAR

STARTCHAR C367
ENCODING 247
SWIDTH 1 0
DWIDTH 8 0
BBX 8 16 0 0
BITMAP
00
00
76
76
DC
DC
00
00
76
76
DC
DC
00
00
00
00
ENDCHAR

STARTCHAR C370
ENCODING 248
SWIDTH 1 0
DWIDTH 8 0
BBX 8 16 0 0
BITMAP
38
38
6C
6C
6C
6C
38
38
00
00
00
00
00
00
00
00
ENDCHAR

STARTCHAR C371
ENCODING 249
SWIDTH 1 0
DWIDTH 8 0
BBX 8 16 0 0
BITMAP
00
00
00
00
00
00
18
18
18
18
00
00
00
00
00
00
ENDCHAR

STARTCHAR C372
ENCODING 250
SWIDTH 1 0
DWIDTH 8 0
BBX 8 16 0 0
BITMAP
00
00
00
00
00
00
00
00
18
18
00
00
00
00
00
00
ENDCHAR

STARTCHAR C373
ENCODING 251
SWIDTH 1 0
DWIDTH 8 0
BBX 8 16 0 0
BITMAP
0F
0F
0C
0C
0C
0C
0C
0C
EC
EC
6C
6C
3C
3C
1C
1C
ENDCHAR

STARTCHAR C374
ENCODING 252
SWIDTH 1 0
DWIDTH 8 0
BBX 8 16 0 0
BITMAP
78
78
6C
6C
6C
6C
6C
6C
6C
6C
00
00
00
00
00
00
ENDCHAR

STARTCHAR C375
ENCODING 253
SWIDTH 1 0
DWIDTH 8 0
BBX 8 16 0 0
BITMAP
70
70
18
18
30
30
60
60
78
78
00
00
00
00
00
00
ENDCHAR

STARTCHAR C376
ENCODING 254
SWIDTH 1 0
DWIDTH 8 0
BBX 8 16 0 0
BITMAP
00
00
00
00
3C
3C
3C
3C
3C
3C
3C
3C
00
00
00
00
ENDCHAR

STARTCHAR C377
ENCODING 255
SWIDTH 1 0
DWIDTH 8 0
BBX 8 16 0 0
BITMAP
00
00
00
00
00
00
00
00
00
00
00
00
00
00
00
00
ENDCHAR
ENDFONT
